<?xml version="1.0" encoding="UTF-8"?>
<svg id="Layer_1" xmlns="http://www.w3.org/2000/svg" version="1.1" viewBox="0 0 440.45 293.63">
  <!-- Generator: Adobe Illustrator 30.6.0, SVG Export Plug-In . SVG Version: 2.1.4 Build 109)  -->
  <defs>
    <style>
      .st0 {
        fill: #68a643;
      }

      .st1 {
        fill: #253e8b;
      }

      .st2 {
        fill: #f05423;
      }

      .st3 {
        fill: #fcbf39;
      }

      .st4 {
        fill: #c62026;
      }

      .st5 {
        fill: #2f4ba0;
      }

      .st6 {
        fill: #c42026;
      }

      .st7 {
        fill: #93c83e;
      }

      .st8 {
        fill: #d32027;
      }

      .st9 {
        fill: #dc1f26;
      }

      .st10 {
        fill: #fefeff;
      }

      .st11 {
        fill: #f36d21;
      }

      .st12 {
        fill: #94c83d;
      }

      .st13 {
        fill: #f7921e;
      }

      .st14 {
        fill: #121529;
      }

      .st15 {
        fill: #3460ad;
      }

      .st16 {
        fill: #253d89;
      }

      .st17 {
        fill: #6bab43;
      }

      .st18 {
        fill: #3562ae;
      }

      .st19 {
        fill: #bf2026;
      }

      .st20 {
        fill: #bc2025;
      }

      .st21 {
        fill: #ef3924;
      }

      .st22 {
        fill: #e31e26;
      }

      .st23 {
        fill: #6cab43;
      }

      .st24 {
        fill: #ef3c23;
      }

      .st25 {
        fill: #64b7e7;
      }

      .st26 {
        fill: #feffff;
      }

      .st27 {
        fill: #c52026;
      }
    </style>
  </defs>
  <g id="Generative_Object">
    <rect class="st10" width="440.45" height="293.63"/>
    <g>
      <path class="st14" d="M233.14,187.3c-6.74,5.56-14.12,10.13-22.43,13.08-14.14,5.03-29.29,5.44-43.82,1.78-15.2,1.38-30.88,1.05-45.13-4.44-8.6-3.39-17.53-9.89-19.2-19.24-1.2-6.73.35-13.46,3.92-19.21l2.48-3.89c3.49-4.8,7.43-9.02,11.69-13.29-2.18-31.33,17.05-57.57,47.28-65.64,12.62-2.96,25.73-2.52,37.94,1.85,9.61,3.44,18.26,8.64,25.74,15.69,11.95-3.94,24.16-6.71,36.75-7.98l12.96-.62c12.03.05,25,1.74,34.44,9.45,3.32,2.71,5.76,6.05,7.15,10.07,2.02,7.14.75,14.33-2.8,20.8-3.36,6.12-7.64,11.39-12.86,16.27,2.19,14.91-3.45,29.69-14.91,39.38-10.89,9.21-25.27,12.87-39.24,9.68-5.82-1.26-11.07-3.56-15.94-7.05l-4.01,3.31Z"/>
      <g>
        <path class="st5" d="M190.13,188.17l2.21-.43,9.55-2.25c16.43-3.87,32.41-8.72,48.43-13.94.72-.24,1.03-.21,1.6-.24-7.86,4.07-15.9,7.64-24.33,10.68l-12.49,4.5c-23.48,7.71-47.91,13.4-72.72,10.95-13.97-1.38-34.74-7.43-33.31-23.92.28-3.3,1.15-6.43,2.43-9.31l.57.27c-.83,7.83,1.04,14.29,8.01,19.06,18.04,12.35,48.79,9.16,68.89,4.57l1.17.08Z"/>
        <path class="st25" d="M214.49,178.63c-.15.43-.48.57-.99.77-7.31,2.91-14.5,5.73-22.04,8.05-.58.18-1.23,0-1.33.71-14.25,3.97-29.11,5.46-43.98,4.06-9.26-.87-20.99-3.67-28.05-9.47-4.14-3.4-6.56-7.93-6.77-13.29l.17-5.26c.74-1.66,1.31-3.38,2.33-5.07,2.24-3.72,4.86-7.05,7.91-10.05l.53,2.67c-5.64,8.89-8.1,19.23.16,26.98,3.19,2.99,7.06,4.99,11.25,6.49,23.98,8.57,57.04,1.19,80.82-6.58Z"/>
        <path class="st10" d="M130.32,178.51c-5.54-2.98-6.19-9.05-4.56-14.82,2.81,6.32,6.47,11.62,10.87,17.14-2.21-.31-4.31-1.24-6.32-2.32Z"/>
        <g>
          <path class="st7" d="M197.75,162.21c-.09.21-.18.42-.31.6s-.25.34-.41.43c-9.07,4.97-23.52,8.39-33.76,6.41-.18-.04-.35-.16-.53-.29s-.34-.31-.48-.48c-.71.29-.81.05-.28-.5-1.91-.83-1.01-3.54-.42-5.1,1.09-2,2.09-4.03,2.98-6.07-2.87-1.28-5.62-2.78-8.24-4.51-3.19-3.88-7.17-5.98-11.7-7.9-2.71-1.24-3.48-3.71-4.29-6.32l-.79-1.37c-2.23-.28-3.64-1.17-4.21-2.66.28-2.27.7-4.53,1.26-6.79l-.35-.56c-1.71-.03-2.7-.53-2.97-1.51l-.59-.24c-.76-3.49-.54-7.04.67-10.65,2.9-6.79,7.44-12.87,12.83-17.8,3.68-.86,7.11-2.17,10.95-2.56-.04.69-.17,1.85.38,2.16,2.65,1.49.12,3.42.03,7.12,2,1.12,5.79.27,6.8,1.88l1.77,2.81c.26.42.77.61,1.18.55.3-.05.57-.4.78-.75l2.18-3.55c.4-.66.61-1.47.35-2.22-.18-.51-.81-1.11-1.58-1.22l-3.5-.49c-.78-.11-1.72-.76-1.41-1.57.22-.57.56-1.03.4-1.62-.09-.35-.45-.68-.82-1.04-2.57-2.52-6.45-3.35-6.67-5.93l6.75-.66,9.38-1.1c.56-.07,1.13.28,1.26.64.2.53-.06,1.09-.55,1.36l-2.74,1.54c-.29.16-.5.54-.44.78s.53.42.84.43l6.83.13c1.2.02,2.7.43,3.15,1.64.6,1.63-2.78,4.99-1.51,8.68.51,1.49,1.95,2.53,3.26,3.29l4.89,2.86c1.07.62,1.56,1.64.94,2.61-1.58,2.51-3.46-.82-7.3-.03l-4.77.99c-.4.08-1.02.58-.81.98.62,1.19,2.84,1.08,3.16,2.37.39,1.55-1.31,2.73-3.76,3l-5.39.58c-2.51.27-1.07,3.51-3.79,6l-2.38,2.18c-1.67,1.17-2.34,2.92-1.79,4.93.61,2.21.24,4.45-1.01,4.73-.47.1-.87-.21-1.29-.42-2.86-1.4-.73-3.62-1.23-4.64-.13-.25-.56-.61-1.02-.62-4.95-.14-9.73-3.18-10.27-1.14l-1.22,4.6c-.3,1.12.12,2.29.88,2.99,1.7,1.57,4.87-.43,7.18.75,2.02,1.03-.63,3.82.28,5.01s5.02.34,5.33,3.3c.05.52-.62,1.64-.08,2.18,2.09,2.09,5.1,2.46,7.94,1.81s5.24-.65,7.88.17l7.21,2.24c3.68,1.14,4.66,3.97,7.56,5.36,2.38,1.14,4.84,1.62,7.36,2.2Z"/>
          <path class="st16" d="M133.26,125.59l.58,1.34c.05,17.76,10.75,34.63,27.53,40.8l.61.66.28.5c1.01.83,1.94,1.82,2.8,2.96l6.85,6.07c1.15,1.04,1.38,2.16,1.43,3.64.02.68-.13,2.23-.91,2.23-6.55.58-13.07.61-19.76.21-19.8-14.63-28.81-39.39-21.69-63.04l2.36-6.25-.64,7.45c-.12,1.28.57,2.4.56,3.44Z"/>
          <path class="st23" d="M198.24,162.06c1.43-.27,4.22.62,5.55,1.32,1.76.94,1.91,2.83,1.43,4.58-1.31,2.59-2.33,5.26-3.05,8.01.11,1.07-.07,1.93-.54,2.58-9.56,2.5-19.32,4.36-29.19,5.23l.27-1.6c.27-1.66-.14-2.95-1.34-4l-4.58-4.01c-1.8-1.58-3.65-3.13-4.51-5.29,11.34,2.33,25.45-1.2,35.49-6.67.04-.21.31-.22.49-.15Z"/>
          <path class="st26" d="M214.24,89.86c-3.01.81-6.48-.08-10.29,1.09-1.49.45-3.08,1.57-3.05,3.17.03,2.48-.74,4.49-2.54,6.18l-2.35,2.21c-.81.76-.78,1.89-1.06,3.18l-5.05-3.35c-1.76-1.17-2.3-2.77-1.99-4.84.34-2.24-.64-4.59-1.99-6.45-2.52-3.47-6.63-5.09-10.86-5.46l-7.11-.63c-.34-.03-.6-.17-.74-.4,6.45-2.05,13.11-2.78,20.06-2.54,9.7.34,18.75,3,26.98,7.83Z"/>
          <path class="st1" d="M218.9,155.4c.83,5.45,2.78,10.57,5.76,15.61-7.64,3.16-15.32,5.52-23.04,7.54-.7-5.19,2.54-8.14,3.19-11.34.31-1.52-.23-2.98-1.56-3.44l-5.01-1.72c5.51-3.14,10.67-6.76,15.14-11.22l.58-.24,3.02,2.93c.84.51,1.48,1.13,1.92,1.87Z"/>
          <path class="st7" d="M226.43,99.57c2,2.08,4.07,4.26,5.63,6.7.88,3.09.36,7.19-.28,10.39l-.69,1.09-3.95,4.47c-.56-.03-1.09.18-1.49.48l-3.31,2.46c-.74.55-1.95.46-2.3-.54-.4-1.14-.5-2.53-.18-3.71.42-1.55,5.91-2.92,8.36-6.13l-1.72-2.04-.73-2.47c-2.49-.58-5.23,1.32-7.72.63-1.01-.28-1.62-.95-1.94-1.73-.86-2.14,3.47-3.93,1.27-8.26-.96-1.89-1.35-3.9.02-4.75.54-.33,1.3-.26,1.87,0l7.16,3.41Z"/>
          <path class="st7" d="M223.76,127.62c-2.85,5.44-4.67,11.34-5.2,17.46-.46,1.1-3.52,5.18-4.36,5.5-.27.1-.56.03-.82-.07-3.15-4.04-4.52-9.03-3.64-14.26.12-.7,0-2.19.77-2.59l10.06-5.14c1.04-.53,2.07-.93,3.18-.9Z"/>
          <path class="st17" d="M218.9,155.4c-1.15-.36-2.05-1.17-2.93-2.04l-2.58-2.53c-.03-.08-.05-.22,0-.32,1.97-1.51,3.25-4,5.18-5.43-.23,3.43-.19,6.91.33,10.32Z"/>
          <path class="st0" d="M231.09,117.74c.44-3.86,1.05-7.63.97-11.48l4.27,7.15-5.23,4.33Z"/>
          <g>
            <path class="st18" d="M167.2,84.57l2.24-.05c9.38.15,20.14,3.07,18.98,14.63-.58,1.6,5.75,5.61,6.14,5.44l.79-2.21c2.26-1.7,3.85-3.75,4.76-6.15.06-2.74.56-4.99,3.51-5.78,3.36-.9,7.21-1.02,10.62-.59l5.34,3.68c2.53,1.74,4.76,3.7,6.84,6.02l-.48.41-7.09-3.36c-2.16-.46-1.91,1.49-1.45,2.93,1.75,2.96,1.42,5.48-.59,8.21-.83,2.36,1.55,2.87,3.43,2.64,2.03-.7,3.98-.87,5.86-.52.49,1.73,1.32,3.24,2.49,4.53-.15,1.21-.96,2.21-2.42,3l-5.43,3.24c-.9,1.04-.76,5.19,1.29,4.03,1.38-1.19,2.87-2.18,4.46-2.97l.66.51-3.39,5.41c-.78.57-1.69,1.01-2.74,1.32l-10.2,5.2c-1.66,4.99-.63,11.02,2.52,15.36l.04,1.01c.21.1.2.21,0,.32-.08.29-.17.57-.3.83s-.25.5-.44.69c-3.55,3.53-8.4,6.9-12.74,9.4-.23.13-.5.18-.78.24s-.58.06-.88.06c-.07.62-.1.58-.49.15-4.63.46-9.05-1.98-12.11-5.34-1.09-.84-1.74-1.13-2.99-1.67-3.61-1.55-9.16-2.95-13.02-2.71-3.56.9-8.92,1.27-10.61-2.65.42-1.71.52-2.58-1.38-3.27-2.58-.17-3.85-1.08-3.81-2.75,1.14-2.43.79-3.66-1.07-3.69-3.19.39-7.8.87-7.14-3.89.13-.93,1.21-5.12,1.75-5.56.71-.58,1.84-.34,2.69-.15l5.04,1.31c3.65-.09,4.96,1.19,3.92,3.84.76,3.09,3.54,2.77,2.9-.76-.61-2.35-.72-3.9.89-5.85,1.88-1.38,3.39-2.98,4.54-4.81.28-2.08,1.1-3.48,2.46-4.2,2.89-.11,5.64-.59,8.25-1.43,1.43-1.14.92-2.11-1.55-2.89-.89-.69-1.28-1.33-.39-2.24.73-.75,6.83-1.78,8.28-1.38,3.51,1.48,4.84,1.1,3.99-1.13-2.87-1.57-5.56-3.35-8.06-5.34l-.81-1.31c-.59-2.73-.11-5.49,1.43-8.3.15-1.31-1.02-1.62-2.13-1.82l-7.34-.16c-1.58-.35-1.78-1.12-.68-2.26,2.68-1.16,3.55-1.99,2.61-2.49l-15.68,1.73c1.34,1.55,3.04,2.85,5.07,3.89,1.22.73,1.99,1.68,2.31,2.83-.71,1.35-.59,2.11.36,2.3,4.62-.01,6.42,1.5,5.42,4.54-.48,1.38-3.35,6.46-5.07,4.29-.72-1.19-1.5-2.33-2.33-3.41l-1.18-.38c-1.96,0-3.7-.4-5.23-1.22.07-1.9.42-3.81,1.05-5.73-.44-.7-.95-1.37-1.53-2.03.19-1.15-.68-1.37-2.62-.66l-6.74,1.79-1.06-.33c3.19-3.36,7.09-5.79,11.17-8.1,3.21-1.81,6.47-3.16,9.85-4.23Z"/>
            <path class="st7" d="M178.85,148.97c-.6.68-2.02-.19-2.6-.58-4.38-2.92-8.26-1.07-10.63-2.01-2.08-.82-3.8-2.27-5.43-3.75s3.05-3.22,5.94-1.96l3.83,2.49c1.98,1.29,7.36.02,9,2.25.55.75.59,2.74-.11,3.56Z"/>
            <path class="st12" d="M216.58,117.31c-1.8,1.66-4.16,2.31-6.48,1.48-1.63-1.87-1.73-4.64-.1-6.68,1.97-.28,4.3-.05,6.01,1.06,1.32.85,1.15,2.91.56,4.14Z"/>
          </g>
          <path class="st15" d="M161.98,168.39c-.97-.07-1.9-.37-2.93-.86-16.69-7.86-25.95-23.66-25.79-41.94,1.3,1.07,2.98.52,3.57,1.26.25.32.42.85.3,1.34l-1.23,5.15c-.17.73,0,1.45.44,1.99.73.88,3.01.67,3.62,1.42,1.09,1.32,1.31,3.07,1.97,4.62,1.62,3.79,7.14,3.78,11.52,7.69,1.74,1.55,3.07,3.53,5.17,4.57l5.76,2.85c.35.17.63.31.71.58.05.18.03.52-.09.76l-2.83,5.51c-.85,1.65-1.05,3.53-.19,5.05Z"/>
        </g>
        <g>
          <path class="st2" d="M251.93,171.3c-19.8,7.22-41.55,13.06-61.32,17.36l-.47-.49c-.64-.35-.46-.68.12-1.03,8.06-2.41,16.44-5.43,24.23-8.51,13.96-4.56,27.53-10.19,40.75-16.85,15.42-7.76,37.5-21.21,46.31-35.64l.31-.19c1.47-.95,2.07-.24,1.79,2.14.84.57,1.04,1.16.6,1.77l-.35.96c-2.15,2.67-4.53,5.16-7.13,7.45,8.44-5.25,16.25-12.87,20.26-22.29l1.02-1-.6,2.88c-2.06,5.49-4.93,10.57-8.92,14.88l-4.56,4.93c-13.45,12.91-32.37,24.32-49.13,32.52-1.03.5-1.94,1.04-2.92,1.11Z"/>
          <path class="st11" d="M309.98,96.44c-.51.44-1.28.33-2.31-.32l-2.97-.88c10.93,6.61,11.5,16.61,5.63,27.13-.84,1.51-3.96,6.52-5.15,7.29-.28.18-.6.22-.93.19-.1-.67-.73-1.01-1.17-1.54l-.02-2.49-.76.57c-.16.12-.56.05-.77-.26,4.33-7.08,6.42-15.8.28-22.23-8.19-8.58-24.88-9.63-36.6-9-10.29.56-20.26,2.09-30.22,4.32l-.75-1.02c17.72-6.2,35.78-9.86,54.45-8.36,7.08.57,15.88,2.41,21.27,6.59Z"/>
          <path class="st26" d="M296.73,107.26c4.42,3.84,4.76,9.51.89,13.86-7.29-7.93-16.87-12.84-27.37-14.84-9.13-1.74-18.25-1.04-26.76,2.78l-3.53-5.58c9.59-2.01,18.99-3.14,28.71-3.39,9.63,0,20.79.85,28.06,7.17Z"/>
          <path class="st3" d="M309.98,96.44c1.46.59,2.62,1.82,3.84,2.95,4.34,4.02,5.76,10.06,4.24,15.59-1.82,4.71-4.43,8.96-7.91,12.78-3.19,3.51-6.51,6.7-10.48,9.3l-8.3,5.43c4.54-4.2,8.94-8.16,12.9-12.65,5.25-5.95,10.6-14.94,8.92-23.02-1.43-6.89-7.96-11.19-14.14-13.92l8.82,2.66,2.12.86Z"/>
          <path class="st20" d="M262.72,171.38c.05.34.22.51.49.67,2.35,1.41,4.16,3.45,3.24,5.62-1.35,3.2-8.78,2.97-13.42-.27-.36-.25-.48-.92-1.04-.77l10.72-5.24Z"/>
          <path class="st19" d="M301.43,151.51c-.12,3.48-1.29,6.77-2.61,10.03,0-.37-.24-.44-.49-.31-3.16,1.58-7.58,2.55-8.38.54-.25-.62-.05-1.59.51-2.09l8.9-7.97c.62-.55,1.41-.76,2.06-.2Z"/>
          <g>
            <path class="st22" d="M301.43,151.51c-.58.15-1.15.36-1.7.64l-8.92,7.99c-1.71,4.05,5.8,1.45,7.44.52.82-.1.84.13.58.88-8.5,21.12-34.62,30.3-54.76,18.55l7.93-3.46.99-.17c4.66,5.16,20.12,3.22,9.48-4.27-.28-.27-.07-.54.25-.79,6.09-2.97,11.9-6.22,17.46-9.91,1.66-.7,3.41-1.29,5.23-1.78,1.69-.71,3.07-1.87,4.16-3.48-.07-.54.05-.95.37-1.21l11.67-9.09-.19,5.6Z"/>
            <path class="st24" d="M280.18,161.47l9.76-6.47c.22.47.39,1.2.03,1.62l-1.45,1.69c-1.74,2.02-4.34,2.34-6.89,2.91-.42.09-1.11,1-1.45.26Z"/>
            <path class="st19" d="M282.51,174c-2.15,2.92-6.59,4.17-7.81,2.78-1.54-1.75,3.33-6.08,7.42-5.56,1.2.15,1.03,1.91.39,2.78Z"/>
          </g>
          <g>
            <path class="st9" d="M250.12,160.09l-18.81,8.21c-6.69-9.98-7.96-22.52-3.68-33.61,1.44.56,2.36,1.77,3.07,3.08,1.36,2.5.89,5.15.78,7.89-.09,2.11,1.34,4.02,2.08,5.84,8.7.83,9.74,7.54,10.06,7.94.22.28.82.3,1.26.32l5.26.32Z"/>
            <path class="st9" d="M283.05,140.39c.05-1-.6-1.69-.8-2.61-1-4.51-.09-9.43,2.6-13.18,1.26-1.76,2.97-2.82,4.57-4.15,2.55,2.29,4.7,4.73,6.5,7.67-3.81,4.7-8.13,8.62-12.87,12.27Z"/>
            <g>
              <path class="st21" d="M289.42,120.45l-.1.82c-6.14,3.87-8.47,11.76-5.79,18.45l-.48.67c-10.3,7.76-21.39,14.15-32.93,19.7-2.15.45-5.21.83-7.05-.45-1.28-4.65-5.05-7.19-9.81-7.7-1.29-1.88-2.08-3.89-2.37-6.05.77-3.84.08-7.09-2.08-9.75-.72-.4-1.12-.88-1.19-1.45,1.64-4.24,3.75-7.9,6.78-11.28,3.87-4.3,8.42-7.74,13.8-9.96,13.98-5.78,30.01-3.07,41.21,6.99Z"/>
              <g>
                <path class="st4" d="M243.59,146.85c-4.27.19-7.37-3.21-7.73-7.11-.2-2.23.36-4.07,1.83-5.48s3.45-2.09,5.61-1.59c4.73,1.09,7.38,6.11,5.51,10.62-.85,2.05-2.76,3.45-5.22,3.56Z"/>
                <path class="st6" d="M267.57,140.72c-3.01,1.75-6.95,1.44-9.4-.81-1.07-.98-1.55-2.2-1.5-3.54.05-1.24.86-2.46,2.17-3.19,2.92-1.61,6.72-1.18,9.2,1.04,1,.89,1.59,2.01,1.54,3.26-.05,1.14-.7,2.48-2,3.23Z"/>
                <path class="st13" d="M259.63,117.57c1.02,4.6-12.09,6.73-13.15,2.57-.18-.69.1-1.69.8-2.25,4.5-3.62,11.81-2.77,12.35-.32Z"/>
                <path class="st27" d="M273.88,127.25c-2.34.65-4.69-.43-5.95-2.32-.36-.54-.3-1.39-.01-1.85,1.06-1.68,4.77-1.27,6.72.84.47.51.66,1.16.59,1.78-.06.49-.49,1.31-1.35,1.55Z"/>
                <path class="st8" d="M258.51,151.58c-1.52,2.23-5.11,2.84-5.89,1-.23-.54.02-1.37.48-1.86,1.76-1.86,4.29-2.44,5.33-1.18.43.52.51,1.41.09,2.04Z"/>
              </g>
            </g>
          </g>
        </g>
      </g>
    </g>
  </g>
</svg>